{"title":"Men in Black 3 (2012).720p.BRRip.x264.[Dual Audio].6Ch.[Hindi+En","uid":7617923,"size":1781351498,"categoryP":"video","categoryS":"hd___movies","magnet":"?xt=urn:btih:a755405946f5f11d301193a43bc77c492a0cfb3c&amp;dn=Men+in+Black+3+%282012%29.720p.BRRip.x264.%5BDual+Audio%5D.6Ch.%5BHindi%2BEn&amp;tr=udp%3A%2F%2Ftracker.openbittorrent.com%3A80&amp;tr=udp%3A%2F%2Fopen.demonii.com%3A1337&amp;tr=udp%3A%2F%2Ftracker.coppersurfer.tk%3A6969&amp;tr=udp%3A%2F%2Fexodus.desync.com%3A6969","seeders":1,"leechers":0,"uploader":"TeamExD","files":4,"time":1347252007,"description":" &lt;a href=&quot;http://img210.imageshack.us/img210/5512/exdp.jpg&quot; rel=&quot;nofollow&quot; target=&quot;_NEW&quot;&gt;http://img210.imageshack.us/img210/5512/exdp.jpg&lt;/a&gt;\nFormat                                   : Matroska\nFormat version                           : Version 2\nFile size                                : 1.64 GiB\nDuration                                 : 1h 45mn\nOverall bit rate                         : 2 221 Kbps\nMovie name                               : Men in Black 3 (2012).720p.BRRip.x264.[Dual Audio].6Ch.[Hindi+English].by K@rtik [ExD Exclusive]\nFormat                                   : AVC\nFormat/Info                              : Advanced Video Codec\nFormat profile                           : &lt;a class=&quot;__cf_email__&quot; href=&quot;/cdn-cgi/l/email-protection&quot; data-cfemail=&quot;d79fbeb0bf979be4f9e6&quot;&gt;[email&amp;#160;protected]&lt;/a&gt;&lt;script cf-hash='f9e31' type=&quot;text/javascript&quot;&gt;\n/* &lt;![CDATA[ */!function(){try{var t=&quot;currentScript&quot;in document?document.currentScript:function(){for(var t=document.getElementsByTagName(&quot;script&quot;),e=t.length;e--;)if(t[e].getAttribute(&quot;cf-hash&quot;))return t[e]}();if(t&amp;&amp;t.previousSibling){var e,r,n,i,c=t.previousSibling,a=c.getAttribute(&quot;data-cfemail&quot;);if(a){for(e=&quot;&quot;,r=parseInt(a.substr(0,2),16),n=2;a.length-n;n+=2)i=parseInt(a.substr(n,2),16)^r,e+=String.fromCharCode(i);e=document.createTextNode(e),c.parentNode.replaceChild(e,c)}}}catch(u){}}();/* ]]&gt; */&lt;/script&gt;\nFormat settings, ReFrames                : 5 frames\nDuration                                 : 1h 45mn\nBit rate                                 : 1 133 Kbps\nWidth                                    : 1 280 pixels\nHeight                                   : 688 pixels\nDisplay aspect ratio                     : 1.860\nFrame rate                               : 23.976 fps\nStream size                              : 824 MiB (49%)\nTitle                                    : K@rtik\nCodec ID                                 : A_AC3\nDuration                                 : 1h 45mn\nBit rate                                 : 448 Kbps\nChannel(s)                               : 6 channels\nChannel positions                        : Front: L C R, Side: L R, LFE\nSampling rate                            : 48.0 KHz\nStream size                              : 339 MiB (20%)\nTitle                                    : K@rtik\nCodec ID                                 : A_AC3\nDuration                                 : 1h 45mn\nBit rate mode                            : Constant\nBit rate                                 : 640 Kbps\nChannel(s)                               : 6 channels\nChannel positions                        : Front: L C R, Side: L R, LFE\nSampling rate                            : 48.0 KHz &lt;a href=&quot;\nhttp://img17.imageshack.us/img17/4897/15093091.png&quot; rel=&quot;nofollow&quot; target=&quot;_NEW&quot;&gt;\nhttp://img17.imageshack.us/img17/4897/15093091.png&lt;/a&gt; &lt;a href=&quot;\nhttp://img526.imageshack.us/img526/8679/99359668.png&quot; rel=&quot;nofollow&quot; target=&quot;_NEW&quot;&gt;\nhttp://img526.imageshack.us/img526/8679/99359668.png&lt;/a&gt; &lt;a href=&quot;\nhttp://img35.imageshack.us/img35/7714/40791689.png&quot; rel=&quot;nofollow&quot; target=&quot;_NEW&quot;&gt;\nhttp://img35.imageshack.us/img35/7714/40791689.png&lt;/a&gt; &lt;a href=&quot;\nhttp://img210.imageshack.us/img210/5996/64003410.png&quot; rel=&quot;nofollow&quot; target=&quot;_NEW&quot;&gt;\nhttp://img210.imageshack.us/img210/5996/64003410.png&lt;/a&gt; &lt;a href=&quot;\nhttp://img109.imageshack.us/img109/5317/17912350.png&quot; rel=&quot;nofollow&quot; target=&quot;_NEW&quot;&gt;\nhttp://img109.imageshack.us/img109/5317/17912350.png&lt;/a&gt; &lt;a href=&quot;\nhttp://img809.imageshack.us/img809/2245/95165727.png&quot; rel=&quot;nofollow&quot; target=&quot;_NEW&quot;&gt;\nhttp://img809.imageshack.us/img809/2245/95165727.png&lt;/a&gt; &lt;a href=&quot;\nhttp://img685.imageshack.us/img685/6664/59573676.png&quot; rel=&quot;nofollow&quot; target=&quot;_NEW&quot;&gt;\nhttp://img685.imageshack.us/img685/6664/59573676.png&lt;/a&gt; &lt;a href=&quot;\nhttp://img89.imageshack.us/img89/1854/85575835.png&quot; rel=&quot;nofollow&quot; target=&quot;_NEW&quot;&gt;\nhttp://img89.imageshack.us/img89/1854/85575835.png&lt;/a&gt; &lt;a href=&quot;\nhttp://img834.imageshack.us/img834/1617/81129923.png&quot; rel=&quot;nofollow&quot; target=&quot;_NEW&quot;&gt;\nhttp://img834.imageshack.us/img834/1617/81129923.png&lt;/a&gt; &lt;a href=&quot;\nhttp://img842.imageshack.us/img842/4192/61629541.png&quot; rel=&quot;nofollow&quot; target=&quot;_NEW&quot;&gt;\nhttp://img842.imageshack.us/img842/4192/61629541.png&lt;/a&gt; &lt;a href=&quot;\nhttp://img819.imageshack.us/img819/4518/93193243.png&quot; rel=&quot;nofollow&quot; target=&quot;_NEW&quot;&gt;\nhttp://img819.imageshack.us/img819/4518/93193243.png&lt;/a&gt; &lt;a href=&quot;\nhttp://img692.imageshack.us/img692/231/92478659.png&quot; rel=&quot;nofollow&quot; target=&quot;_NEW&quot;&gt;\nhttp://img692.imageshack.us/img692/231/92478659.png&lt;/a&gt;\n\nThanks To shopie Hindi Audio\n","torrent":{"xt":"urn:btih:a755405946f5f11d301193a43bc77c492a0cfb3c","amp;dn":"Men+in+Black+3+%282012%29.720p.BRRip.x264.%5BDual+Audio%5D.6Ch.%5BHindi%2BEn","amp;tr":["udp%3A%2F%2Ftracker.openbittorrent.com%3A80","udp%3A%2F%2Fopen.demonii.com%3A1337","udp%3A%2F%2Ftracker.coppersurfer.tk%3A6969","udp%3A%2F%2Fexodus.desync.com%3A6969"],"infoHash":"a755405946f5f11d301193a43bc77c492a0cfb3c","infoHashBuffer":{"type":"Buffer","data":[167,85,64,89,70,245,241,29,48,17,147,164,59,199,124,73,42,12,251,60]},"announce":[],"urlList":[]}}